# xmcd
#
# Track frame offsets:
#	150
#	19806
#	30782
#	43758
#	61150
#	83173
#	102000
#	116648
#	135199
#	162898
#	175806
#	189608
#
# Disc length: 2701 seconds
#
# Revision: 1
# Processed by: cddbd v1.5.2PL0 Copyright (c) Steve Scherf et al.
# Submitted via: audiograbber 1.83.01
#
DISCID=890a8b0c
DTITLE=ZZZ - Cuba - la Antologia 1
DYEAR=1900
DGENRE=Spain
TTITLE0=Compay Segundo - Chan chan
TTITLE1=Omara Portuondo - Quizás, Quizás, Quizás
TTITLE2=Celia Cruz - Ven Bernabé
TTITLE3=Elíadez Ochoa - Que Lío
TTITLE4=Lucrecia, Celia Cruz and Andy García - La Cuba Mía5
TTITLE5=Chucho Valdés and Buika - Somos
TTITLE6=Silvio Rodríguez and Compay Segundo - Fidelidad
TTITLE7=Afro Cuban All Stars - Ven A Bailar El Cha Cha Cha
TTITLE8=Jóvenes Claássicos Del Son - Guajira En Descarga
TTITLE9=Vicentico valdés - Has vuelto A Mí
TTITLE10=Pérez Prado - Aquellos Ojos Verdes
TTITLE11=Fajardo and Sus Estellas - Aguardiente
EXTD=
EXTT0=
EXTT1=
EXTT2=
EXTT3=
EXTT4=
EXTT5=
EXTT6=
EXTT7=
EXTT8=
EXTT9=
EXTT10=
EXTT11=
PLAYORDER=
